/* XPM */
static char *a7a8131893c2418184234012beea67ffEcomPEjQbKyOQTVT[] = {
/* columns rows colors chars-per-pixel */
"32 32 149 2 ",
"   c #34434E",
".  c #364652",
"X  c #374855",
"o  c #384956",
"O  c #374D5E",
"+  c #3A4C59",
"@  c #3D505E",
"#  c #374F60",
"$  c #384F61",
"%  c #3A5265",
"&  c #3C556A",
"*  c #3E586E",
"=  c #3F5A71",
"-  c #415D74",
";  c #435F78",
":  c #446077",
">  c #46647A",
",  c #45627C",
"<  c #45637C",
"1  c #45637D",
"2  c #46637C",
"3  c #46637D",
"4  c #46647C",
"5  c #46657C",
"6  c #46647D",
"7  c #47647D",
"8  c #46647E",
"9  c #47647E",
"0  c #46647F",
"q  c #47647F",
"w  c #47657F",
"e  c #45627B",
"r  c #48647D",
"t  c #48657E",
"y  c #48657F",
"u  c #48667E",
"i  c #48677E",
"p  c #49667F",
"a  c #48677F",
"s  c #49677F",
"d  c #4A667F",
"f  c #48667F",
"g  c #476580",
"h  c #476680",
"j  c #476680",
"k  c #486580",
"l  c #486680",
"z  c #496780",
"x  c #486681",
"c  c #486781",
"v  c #496781",
"b  c #486682",
"n  c #486782",
"m  c #496782",
"M  c #496783",
"N  c #496781",
"B  c #4B6A81",
"V  c #496882",
"C  c #496982",
"Z  c #496883",
"A  c #4A6882",
"S  c #4A6883",
"D  c #4A6983",
"F  c #4B6A83",
"G  c #4D6C82",
"H  c #496884",
"J  c #496984",
"K  c #4A6884",
"L  c #4A6984",
"P  c #4A6985",
"I  c #4B6985",
"U  c #4B6B84",
"Y  c #4A6A85",
"T  c #4B6A85",
"R  c #4B6A86",
"E  c #4B6B86",
"W  c #4B6B87",
"Q  c #4C6B84",
"!  c #4C6B85",
"~  c #4C6B86",
"^  c #4C6B87",
"/  c #4C6D84",
"(  c #4C6C85",
")  c #4D6C85",
"_  c #4D6C86",
"`  c #4D6D86",
"'  c #4C6C87",
"]  c #4D6D87",
"[  c #4E6D86",
"{  c #4E6D87",
"}  c #4F6F86",
"|  c #4E6E87",
" . c #4B6A84",
".. c #4E6E88",
"X. c #4F6E88",
"o. c #4F6E89",
"O. c #4F6F89",
"+. c #4E6E8A",
"@. c #4F6F88",
"#. c #506E89",
"$. c #516F89",
"%. c #506F89",
"&. c #4F708A",
"*. c #4F708B",
"=. c #507087",
"-. c #517089",
";. c #50708A",
":. c #51718B",
">. c #52728B",
",. c #51718C",
"<. c #51728C",
"1. c #52728C",
"2. c #53738C",
"3. c #52728D",
"4. c #53738D",
"5. c #53738E",
"6. c #54738D",
"7. c #53748F",
"8. c #54748D",
"9. c #55758D",
"0. c #54748F",
"q. c #55758F",
"w. c #55768E",
"e. c #55768F",
"r. c #56768E",
"t. c #57778F",
"y. c #54738C",
"u. c #547490",
"i. c #557690",
"p. c #577790",
"a. c #567791",
"s. c #567792",
"d. c #577790",
"f. c #577892",
"g. c #577992",
"h. c #587890",
"j. c #587990",
"k. c #597991",
"l. c #587892",
"z. c #587993",
"x. c #587A93",
"c. c #597A93",
"v. c #587A94",
"b. c #597A94",
"n. c #597B94",
"m. c #597B95",
"M. c #5A7C96",
"N. c #5B7E97",
"B. c #5A7B93",
/* pixels */
"  X @ + X X % % X . . X X X + X X X X X   . X . . X + X X . . . ",
"X k.N.6.k.4.4.4.^ e X 0.m.O.O.` D ` ` e X 0.g.#.4.;.D ` ` D 5 X ",
"X O.L e ^ L L l e & X ;.O.L L ; ; * ; % X O.l ; l q e : ; - &   ",
"X O.q q ^ q l : ; % X 7.L ; : < q - = % X p.l e e ; * & * % %   ",
"X e e ; * - - - & % X e < ; e ; * * % % . s e ; ; * = & & % %   ",
"X X X X X . + + X + X X + + + . X X + X X + + X X . X X X X X . ",
"0.4.s D s + p.m.4.k.m.O.O.;.e X k.N.k.4.k.O.O.O.e X 0.g.;.;.^ D ",
"l q - : - + 4.L D < l l e ; & + p.*.< : D l l ; & + *.l ; q e ; ",
"e : ; ; * + 4.l ` L L : ; ; % + ` q e e q l ; - % + 0.q ; e ; = ",
"e * = & % X e - < : s q - & % X s ; e ; * ; * * $ X e - ; = * % ",
"X X X X X X X X X X . + + X X X + + + X . X X X X X X X X X .   ",
"X 0.g.` 0.0.4.D D ; X 0.k.4.g.;.;.` ` ; X p.m.4.m.k.O.` 5 e - . ",
"+ O.L l l ; < < ; & X m.L l L l h - * $ + ;.L D D : - ; - & % . ",
"X O.l L L < < q ; % X O.q ; q < - = = # X p.L < ; - - & & * % . ",
"X s < ; ; l s - & % X e - * = & % * % $ . s e & * = = * % * %   ",
"+ + + X X X + + X X X + + X X . X X + X X X X X + . X X X X X . ",
"0.0.^ ^ ; X k.k.4.k.0.` L q - X 0.p.^ 4.4.;.s s - . G =.D ` s q ",
"l l ; < * X #.l l l e e = - % + p.L l l ; * * * # . s - - e = * ",
"< : q q * X ^ q e - ; e - = % X ` L h - & = = * O X ` = ; = * % ",
"- = - - $ . e ; * % - * & % % . : - % % & * % $ O . - & - * = & ",
"X X X X X X + + X . . X X X X X X X . .   X X . . . . . X . .   ",
"X k.N.0.N.N.k.O.` : X k.N.;.p.p.4.s q - . ;.0.` 0.^ q q : - %   ",
"+ O.L ^ L e L l : & X 4.D e l q ; - * % . s ; ; q e = * % % O   ",
"+ D q < q q ` e ; % X p.< q q - = - ; % . q e ; = * * % % & O   ",
"+ - e & & e s - % % . s - ; - - ; * % $ . - * & & & % & % # O   ",
"X + X X . . X X X X X X X X X . X X X X . . . . .   . . . . . . ",
";.;.D D : X 0.k.;.p.0.` ^ < - + 0.k.6.0.D D D e * . G ;.D q 5 q ",
"h q ; < & X #.D L D e ; * * % X D s l l q < - * % . q e : = * * ",
"e ; e < & X 0.L q ; ; e - * $ X ;.l < ; * = * % # . e ; * & % % ",
"* * ; & % . e e * ; - - * % $ . e - * * * & % & % . * % % * % O ",
"  . . . . . . . . .   . .       . .       . . X X .     . .     ",
"  % % % % & % % % O   $ $ + $ & & & % O   $ % % & & O $ & & $   "
};
