/* XPM */
static char *_64a3c9468fc4d86a078be1766b7929fgKYp1Se4llCz1Wjw[] = {
/* columns rows colors chars-per-pixel */
"32 32 7 1 ",
"  c #FF8D00",
". c #00FFEE",
"X c #85EBE5",
"o c #B6FFFA",
"O c #D9FAF8",
"+ c #ECFFFE",
"@ c white",
/* pixels */
"................................",
"................................",
"................................",
"...XXXXXXXXXXXXXXXXXXXXXXXXXX...",
"...XXXXXXXXXXXXXXXXXXXXXXXXXX...",
"...XXXXXXXXXXXXXXXXXXXXXXXXXX...",
"...XXXooooooooooooooooooooXXX...",
"...XXXooooooooooooooooooooXXX...",
"...XXXooooooooooooooooooooXXX...",
"...XXXoooOOOOOOOOOOOOOOoooXXX...",
"...XXXoooOOOOOOOOOOOOOOoooXXX...",
"...XXXoooOOOOOOOOOOOOOOoooXXX...",
"...XXXoooOOO++++++++OOOoooXXX...",
"...XXXoooOOO++++++++OOOoooXXX...",
"...XXXoooOOO++++++++OOOoooXXX...",
"...XXXoooOOO+++@@+++OOOoooXXX...",
"...XXXoooOOO+++@@+++OOOoooXXX...",
"...XXXoooOOO+++@@+++OOOoooXXX...",
"...XXXoooOOO++++++++OOOoooXXX...",
"...XXXoooOOO++++++++OOOoooXXX...",
"...XXXoooOOO++++++++OOOoooXXX...",
"...XXXoooOOOOOOOOOOOOOOoooXXX...",
"...XXXoooOOOOOOOOOOOOOOoooXXX...",
"...XXXoooOOOOOOOOOOOOOOo    X...",
"...XXXoooooooooooooooooo oXXX...",
"...XXXoooooooooooooooooo oXXX...",
"...XXXoooooooooooooooooo    X...",
"...XXXXXXXXXXXXXXXXXXXXX XXXX...",
"...XXXXXXXXXXXXXXXXXXXXX XXXX...",
"...XXXXXXXXXXXXXXXXXXXXX    X...",
"................................",
"................................"
};
