/* XPM */
static char *c8331c888c3342a6b2073b15b473796bHBzAeoJolFLDWxPY[] = {
/* columns rows colors chars-per-pixel */
"32 32 151 2 ",
"   c #374432",
".  c #3A4633",
"X  c #3C4A34",
"o  c #3F5035",
"O  c #404F35",
"+  c #435436",
"@  c #485637",
"#  c #465738",
"$  c #495739",
"%  c #475838",
"&  c #4B5B39",
"*  c #515F3C",
"=  c #515F3C",
"-  c #535E3F",
";  c #515D3C",
":  c #505E3B",
">  c #4E603C",
",  c #4F603C",
"<  c #51603B",
"1  c #50603C",
"2  c #51603C",
"3  c #50613C",
"4  c #51613C",
"5  c #50613D",
"6  c #51613D",
"7  c #52603C",
"8  c #52613C",
"9  c #53613D",
"0  c #50623C",
"q  c #51623C",
"w  c #51623D",
"e  c #52623D",
"r  c #52633D",
"t  c #53633D",
"y  c #53603F",
"u  c #53613F",
"i  c #52623E",
"p  c #53633E",
"a  c #55613D",
"s  c #54633C",
"d  c #55623D",
"f  c #55633D",
"g  c #54603F",
"h  c #54613F",
"j  c #54633E",
"k  c #55623F",
"l  c #54633F",
"z  c #55633F",
"x  c #56633E",
"c  c #57633E",
"v  c #56633F",
"b  c #55643C",
"n  c #56653C",
"m  c #57653C",
"M  c #56643D",
"N  c #54643E",
"B  c #55643E",
"V  c #55653E",
"C  c #55643F",
"Z  c #55653F",
"A  c #56643E",
"S  c #57643E",
"D  c #57653E",
"F  c #56663F",
"G  c #54623D",
"H  c #58653D",
"J  c #59663D",
"K  c #58643E",
"L  c #58643F",
"P  c #59663F",
"I  c #5A663E",
"U  c #5A673E",
"Y  c #5A663F",
"T  c #5A673F",
"R  c #5B673F",
"E  c #5A663E",
"W  c #5C683E",
"Q  c #5D693E",
"!  c #5D693F",
"~  c #5F693F",
"^  c #5F6A3E",
"/  c #5F6A3F",
"(  c #5D693E",
")  c #606B3E",
"_  c #606A3F",
"`  c #616A3F",
"'  c #606B3F",
"]  c #626B3F",
"[  c #626B3F",
"{  c #566240",
"}  c #576340",
"|  c #566241",
" . c #576241",
".. c #576440",
"X. c #586540",
"o. c #596441",
"O. c #596541",
"+. c #596640",
"@. c #596741",
"#. c #5A6640",
"$. c #5B6740",
"%. c #5A6741",
"&. c #5A6642",
"*. c #596640",
"=. c #5B6840",
"-. c #5C6A40",
";. c #5E6A40",
":. c #5F6A40",
">. c #5D6940",
",. c #606B40",
"<. c #616B40",
"1. c #626B40",
"2. c #606B42",
"3. c #606C40",
"4. c #626C40",
"5. c #636C40",
"6. c #626C41",
"7. c #636C41",
"8. c #616C43",
"9. c #626C42",
"0. c #626D42",
"q. c #636C43",
"w. c #636E42",
"e. c #646C40",
"r. c #646D40",
"t. c #656E40",
"y. c #656E41",
"u. c #666E41",
"i. c #666F41",
"p. c #646E42",
"a. c #656F42",
"s. c #646F43",
"d. c #666F42",
"f. c #636D41",
"g. c #677041",
"h. c #667042",
"j. c #677042",
"k. c #677143",
"l. c #677144",
"z. c #677041",
"x. c #687041",
"c. c #687142",
"v. c #687143",
"b. c #687243",
"n. c #697144",
"m. c #697344",
"M. c #6A7444",
"N. c #6B7445",
"B. c #6C7545",
"V. c #6C7645",
"C. c #697242",
/* pixels */
"  . . . . . X . . .   . . . . . . . . .   . . . . X . . . . .   ",
". h.B.M.5.L 5.1.L ; X a.M.h.L a.h.L ) & X ) a.c.M.M.l l ;.B 8 X ",
". ;.8 X.X.| ; l B + X ;.8 l & & 8 & & O . X.l X.X.B & & & & +   ",
"X a.B 8 & & B & + + X a.l & 8 8 % % & X X 5.X.| % # % & & & +   ",
"X B 8 & & & 8 + + + X l ; + # 8 # & + + . l & $ # > & # & + +   ",
". X X . . . X X X X X X X X . . X X X . . X X . . . X . X X . . ",
"a.5.) B & X 1.a.5.X.| l L W & X ) a.M.a.a.a.L W & . 1.a.1.a.L B ",
"& & 8 & X X X.& | 8 & & & & X X 1.8 X.; : & & & + X =.& l 8 & & ",
"% & & # X X 5.l & & & 8 & & X X l...& & 8 & & % + X a.l & & % # ",
"& & + + + X 8 & $ 8 8 % & + + . B & $ + & & + + X . l & & + & & ",
". X X . X X X . . . . . X X X X X X X .   . . . . . X . . . . . ",
". ) c.W a.a.a.L W + . a.c.) a.a.L B B $ . a.h.W c.B.c.B l < & . ",
". X.X.; l : & & & + X 5.B B : & & & % X . W & & & B & + & & + . ",
"X 5.& & & & % & & X X 5.8 8 & & % & + X X 5.& + % 8 > + # & + . ",
". L & # # + & & + X X l # # & + + + + + X l & # & 8 # + & + X   ",
"X X X . .   X X X . . X X . .   . . . X X X . X . . . . X . . . ",
"h.a.L L + X a.c.c.X.l 8 =.B & X ) 5.L 1.1.l l ) & . ] a.W a.a.B ",
"& : & & X . 1.& : 8 & & + + + . X.} & : & & & & X . ;.8 & & & & ",
"8 & % & X X a.B 8 & & 8 # + & X ;.& 8 8 % # & + X X 5.& + % & & ",
"% & & + + X 8 & 8 + + 8 # & + X 8 & & + & & + X o . l & & & + + ",
". X X . X X X X X .   X X X . . X . . . . X . . X . X X X . .   ",
"X a.h.W h.c.a.L L & . a.h.) a.a.a.L L @ . a.c.W c.M.L L L & + . ",
"X 5.& & B : & & & + X ;.X.: : & & & + X . W & & & : & % + + X   ",
"X 5.& 8 & & % % & X X a.X.8 % + # & & X X 5.& & % & # + + & X   ",
"X l & 8 + # & & + X . l # # # # & + o + . l & & & + X + & + X   ",
"X X X X .   X X . . . X X . . . X X X X . X X . .   . . X . X . ",
"a.5.B B + . a.c.W a.5.L B l + . ) c.h.W 1.a.5.l + X a.c.] W L & ",
"& & & & X . ;.& & & & & % % X . L & & & 8 & # % X X W & & & + # ",
"# & % & X X 5.& # & & # % & X X 5.B 8 8 & & % & X X 5.8 & % + + ",
"& # + X X . l & & + # & & + + . B l & # # % & + X . l # # & & + ",
". .     X   . X X       .       X .         . X X   . . . X .   ",
"  X X + + X + X + +   X X X X X X X X X   X X + + + + X + + +   "
};
