/* XPM */
static char *_e80b523be2740b88dd2751606ca6a1dqiwDHpJ3HqVbT4pw[] = {
/* columns rows colors chars-per-pixel */
"32 32 16 1 ",
"  c #734A00",
". c #825400",
"X c #915E00",
"o c #A06800",
"O c #AF7200",
"+ c #BE7C00",
"@ c #2BFF00",
"# c #00AD46",
"$ c #00BC4C",
"% c #00CB52",
"& c #00DA58",
"* c #00E95E",
"= c #00F864",
"- c #08FF6C",
"; c #CD8600",
": c #DC9000",
/* pixels */
"%&%%$%%$%%$%%$%*&%%$$$$%%&&*-&%&",
"%&%%$%%$%%$%%$%*&%%$$$$%%&&*-&%&",
"$%&&&&&&&&&&&&&***%&&*==*%%%%%%=",
"$%&&&&&&&&&&&&&***%&&*==*%%%%%%=",
"$%&&&&&&&&&&&&&***%&&*==*%%%%%%=",
"%O*&&&&&&&&&%&&*&&&&&&&*&&%&&&%%",
"oO*&&&&&&&&&%&&*&&&&&&&*&&%&&&%%",
"o&*&&&&&&&&&%&&*&&&&&&&*&&%&&&%%",
"o&&&o%&&&%%%%%&&&%%&&&&&*&*&&%$#",
"o&&&o%&&&%%%%%&&&%%&&&&&*&*O&%X.",
"oO&Oo%&&&%%%%%&&&%%&&&&&**-:=&X.",
"Xo+O&&&&%&&&&&&&&*&&%&&&%%%o%&OO",
"Xo+&&&&&%&&&&&&&&+&&%O&&%%%%oOOO",
"Xo+&&&&&%&&&&&&&&+&&%&O&%$# .oOO",
"oOO&&&&&&&%&&&%%%O&&%&O&&O+O;;+X",
"oOOO&&&&&&%&&&%%o&&&%&O&OO+O;;+X",
"oOOO&&&&&&%O&&%%o&&&%&OOOO+O;;+X",
";:OOO&+*=&+&&&&*O&OO+O+O+O+OOOoX",
";:OOOO+*=O+O&&&+OOOO+O+O+O+OOOoX",
";:OOOO++;O+OO&O+OOOO+O+O+O+OOOoX",
"O+O+OOOOOOOOOOOoOOOoOOOOOOOO++OX",
"O+O+OOOOOOOOOOOoOOOoOOOOOOOO++OX",
"O+O+OOOOOOOOOOOoOOOoOOOOOOOO++OX",
".oOOOOOooOOOooOOOoOOOoOOOOOOOOOO",
".oOOOOOooOOOooOOOoOOOoOOOOOOOOOO",
".oOOOOOooOOOooOOOoOOOoO@OOO@OOOO",
"o+;+OOOOOoOOOoOOOoOOOoo@@OO@oOOO",
"o+;+OOOOOoOOOoOOOoOOOoo@O@O@oOOO",
"o+;+OOOOOoOOOoOOOoOOOoo@OO@@oOOO",
"oOO+OOOOOOOOOOOoOOOOOOO@OOO@OOX.",
"oOO+OOOOOOOOOOOoOOOOOOOOOOO+OOX.",
"oOO+OOOOOOOOOOOoOOOOOOOOOOO+OOX."
};
