/* XPM */
static char *_8b773e0335248edf763a6c9d7aecfe9lx22ScNBrvCobT4Z[] = {
/* columns rows colors chars-per-pixel */
"32 32 145 2 ",
"   c #3C2216",
".  c #432517",
"X  c #482617",
"o  c #452618",
"O  c #492718",
"+  c #472818",
"@  c #4B2919",
"#  c #542A19",
"$  c #5B2C1A",
"%  c #622E1B",
"&  c #6A2E1B",
"*  c #702E1B",
"=  c #65301C",
"-  c #6C311C",
";  c #73331D",
":  c #7A351E",
">  c #7E381F",
",  c #7D3720",
"<  c #7F3820",
"1  c #83361E",
"2  c #89371F",
"3  c #82391F",
"4  c #89381F",
"5  c #813720",
"6  c #843A20",
"7  c #8A3C21",
"8  c #883C22",
"9  c #893C22",
"0  c #8A3C22",
"q  c #8B3C22",
"w  c #8A3D22",
"e  c #893C21",
"r  c #8C3D22",
"t  c #8E3D23",
"y  c #8D3E22",
"u  c #8D3F23",
"i  c #8E3E23",
"p  c #8F3E23",
"a  c #8E3F23",
"s  c #8F3F23",
"d  c #8B3D22",
"f  c #903E21",
"g  c #913F22",
"h  c #903E23",
"j  c #903F23",
"k  c #913F23",
"l  c #923E23",
"z  c #913E22",
"x  c #8F4023",
"c  c #904023",
"v  c #914023",
"b  c #944123",
"n  c #964123",
"m  c #924024",
"M  c #934024",
"N  c #924124",
"B  c #924224",
"V  c #934224",
"C  c #934324",
"Z  c #944024",
"A  c #944124",
"S  c #954124",
"D  c #954125",
"F  c #944225",
"G  c #954225",
"H  c #974224",
"J  c #964225",
"K  c #974225",
"L  c #974325",
"P  c #934124",
"I  c #984223",
"U  c #984224",
"Y  c #984425",
"T  c #9B4424",
"R  c #9B4425",
"E  c #9B4525",
"W  c #984526",
"Q  c #994526",
"!  c #984626",
"~  c #9A4626",
"^  c #9C4626",
"/  c #9D4626",
"(  c #9D4726",
")  c #9D4727",
"_  c #9E4626",
"`  c #9E4727",
"'  c #9F4727",
"]  c #9C4626",
"[  c #9E4827",
"{  c #9E4827",
"}  c #994828",
"|  c #9F4B29",
" . c #A04727",
".. c #A04827",
"X. c #A14827",
"o. c #A04927",
"O. c #A04827",
"+. c #A04928",
"@. c #A14928",
"#. c #A24A28",
"$. c #A24A29",
"%. c #A34A29",
"&. c #A44A29",
"*. c #A34E2B",
"=. c #A54D29",
"-. c #A44C2A",
";. c #A44E2B",
":. c #A44F2B",
">. c #A54F2B",
",. c #A54E2C",
"<. c #A54F2C",
"1. c #A64F2C",
"2. c #A34C2A",
"3. c #A84E2B",
"4. c #A0502D",
"5. c #A3512D",
"6. c #A5502D",
"7. c #A6502C",
"8. c #A6502D",
"9. c #A7502D",
"0. c #A7512D",
"q. c #A4522E",
"w. c #A5532F",
"e. c #A7522E",
"r. c #A7542F",
"t. c #A5522E",
"y. c #A9502D",
"u. c #A8512D",
"i. c #AA512C",
"p. c #A8522D",
"a. c #A8502E",
"s. c #A8532E",
"d. c #A9532E",
"f. c #A9532F",
"g. c #AA532E",
"h. c #A8542F",
"j. c #AA542F",
"k. c #AB542F",
"l. c #AB552F",
"z. c #AC552F",
"x. c #AA542F",
"c. c #AD5530",
"v. c #AF5630",
"b. c #AE5630",
"n. c #AF5831",
/* pixels */
"  . . . . . o + o .   . o . . o o o . .   . . . . . . o o . .   ",
"@ ! z.h.f.%.,.,.,.9 $ 5.h.w.,.=.%.=._ e o 5.h.w.%.,.S ! _ _ N o ",
". a _ 9 S S S S S : @ =.U 2 g v g a 1 ; o ! S N g N g 2 g S 6   ",
"@ N 9 S a a a 5 g : o ! 2 e 9 9 9 6 : ; @ 9 ! S 9 e 9 g 6 6 ;   ",
". : > > : ; : : : $   * ; - = % % % % $   - 6 ; - = % = = % $   ",
"o o o @ .   + @ @ @ + @ X o .   o @ @ + @ @ # @ + . o + @ + + o ",
"X.n g ! : o w.z.[ w.%._ n g ; + w.v.3.&.f.f.w.X.9 @ 5.v.f.=. ._ ",
"2 e > e : o ! 6 5 6 9 9 6 : % @ f.N a S N N N N , @ ! v a a 4 2 ",
"6 6 6 ; % o 9 > 6 6 6 : : ; % o _ a S S 1 e a a : o N 9 g g 6 6 ",
"$ % $ $ #   - ; - = % % % % #   : 6 : - - = = % $   - ; = = = % ",
"  o o @ @ + @ o o     o + o + + @ # X o . o + @ @ + X . . @ @ . ",
"@ } X.=.X.w.=.! I * . w.h.%.w.w.%._ n e @ W f.f.w.w.X._ *._ > . ",
". 8 g q 9 a a 8 6 & o =.N a a a a 2 q : @ g 6 9 a a g a < 9 : o ",
". a 6 6 : > 6 < > % . 9 S 9 6 6 v 1 ; ; o a 9 6 a 6 6 : 6 6 ; o ",
"  : - = = = = % $ # . - % - = = = & % $   : > = = = = % ; ; $ . ",
"+ @ + o .   + @ @ @ + @ o o .   o @ @ + o X o + o   o + @ @ + + ",
"%._ _ g 3 @ w.v.z.&.=.*.*.! : + 5.f.,.*._ S 6 ! : @ [ =._ *._ _ ",
"q 2 a 1 : # &.9 a g g 4 2 2 - . N 6 8 9 9 : ; ; $ @ x a 9 9 > 9 ",
"g e 9 6 - @ _ 9 6 a g a 6 3 -   > 6 ; 6 6 - - $ #   : 6 : : 6 6 ",
"- % $ = $ . : - $ $ $ - - $ #   = - % % $ # # $ #   - & & - - = ",
". o + @ @ . o o . .   o @ + + + @ @ o .   . + @ @ + @ o @ @ @ o ",
"+ w.v.=.f.&.%._ _ 9 @ w.v.=.h.h.X.%.U : + w.v.%.h.z.X._ w.! ;   ",
"@ f.N a x v g 4 g : o %.N 9 6 9 a 9 > & . [ N a a 9 9 : > 1 - . ",
"$ ! 9 : : 6 9 a a ;   a a 6 6 6 6 : ; $   S 9 a 6 : ; ; > ; - X ",
"# ; ; $ $ % % ; ; $   = $ $ % - $ $ $ #   - % $ $ $ $ $ $ # # . ",
"@ @ + @ .   + @ o . o + + . . . + + + o o o o . .   . o . o + o ",
",.,._ ! > . w.v.h.%.=.[ ! e : @ w.n.v.%.! =.=._ 6 o 5.h.w.,.*.| ",
"6 9 9 9 - . ! e 9 a a 9 1 ; % . N e 9 a a g a 2 : o %.6 6 9 9 9 ",
"6 > 6 6 - . n a 6 a 6 6 6 - $   6 6 6 n a e e 6 ; @ n 6 6 6 : 6 ",
"- - - $ $   ; : - % % $ $ $ # . ; : > 9 : : ; & % o % % $ $ $ - ",
"  . o . . . o .         .         . o .   . o o o .             ",
"  # % $ $ $ $ % $ #   $ $ $ $ $ $ $ - #   # # $ $ $ $ % % $ $   "
};
