/* XPM */
static char *c6a3489d340c460ab37ea6d31a8d8d61J5w1obfYTBnnaqMH[] = {
/* columns rows colors chars-per-pixel */
"32 32 11 1 ",
"  c #0C0C0C",
". c #2A2A28",
"X c #343331",
"o c #3F3E3B",
"O c #4E4C48",
"+ c #5F5C58",
"@ c #797774",
"# c #88847E",
"$ c #999690",
"% c #CFCDC9",
"& c white",
/* pixels */
"&&&%%%$$$###@@@+++OOOoooXXX...  ",
"&&&%%%$$$###@@@+++OOOoooXXX...  ",
"&&&%%%$$$###@@@+++OOOoooXXX...  ",
"&&&%%%$$$###@@@+++OOOoooXXX...  ",
"&&&%%%$$$###@@@+++OOOoooXXX...  ",
"&&&%%%$$$###@@@+++OOOoooXXX...  ",
"&&&%%%$$$###@@@+++OOOoooXXX...  ",
"&&&%%%$$$###@@@+++OOOoooXXX...  ",
"&&&%%%$$$###@@@+++OOOoooXXX...  ",
"&&&%%%$$$###@@@+++OOOoooXXX...  ",
"&&&%%%$$$###@@@+++OOOoooXXX...  ",
"&&&%%%$$$###@@@+++OOOoooXXX...  ",
"&&&%%%$$$###@@@+++OOOoooXXX...  ",
"&&&%%%$$$###@@@+++OOOoooXXX...  ",
"&&&%%%$$$###@@@+++OOOoooXXX...  ",
"&&&%%%$$$###@@@+++OOOoooXXX...  ",
"&&&%%%$$$###@@@+++OOOoooXXX...  ",
"&&&%%%$$$###@@@+++OOOoooXXX...  ",
"&&&%%%$$$###@@@+++OOOoooXXX...  ",
"&&&%%%$$$###@@@+++OOOoooXXX...  ",
"&&&%%%$$$###@@@+++OOOoooXXX...  ",
"&&&%%%$$$###@@@+++OOOoooXXX...  ",
"&&&%%%$$$###@@@+++OOOoooXXX...  ",
"&&&%%%$$$###@@@+++OOOoooX&&...  ",
"&&&%%%$$$###@@@+++OOOooo&XX&..  ",
"&&&%%%$$$###@@@+++OOOooo&XX...  ",
"&&&%%%$$$###@@@+++OOOoooX&&...  ",
"&&&%%%$$$###@@@+++OOOoooXXX&..  ",
"&&&%%%$$$###@@@+++OOOooo&XX&..  ",
"&&&%%%$$$###@@@+++OOOoooX&&...  ",
"&&&%%%$$$###@@@+++OOOoooXXX...  ",
"&&&%%%$$$###@@@+++OOOoooXXX...  "
};
