/* XPM */
static char *_b960b3c99b84fbc831023b8e4687e82hHEed0VLPK0ivn8j[] = {
/* columns rows colors chars-per-pixel */
"32 32 152 2 ",
"   c #5C5A55",
".  c #696761",
"X  c #737069",
"o  c #696760",
"O  c #67645E",
"+  c #6C6A63",
"@  c #6D6B64",
"#  c #65635D",
"$  c #615E59",
"%  c #52504B",
"&  c #6A6862",
"*  c #6D6A64",
"=  c #6B6962",
"-  c #726F69",
";  c #6E6C65",
":  c #63615B",
">  c #5C5A54",
",  c #52514C",
"<  c #66635D",
"1  c #62605A",
"2  c #5F5D57",
"3  c #6F6C66",
"4  c #66645E",
"5  c #63605B",
"6  c #5A5852",
"7  c #7E7B74",
"8  c #838078",
"9  c #7F7B74",
"0  c #807D75",
"q  c #77746D",
"w  c #7B7871",
"e  c #77736D",
"r  c #74716B",
"t  c #706E67",
"y  c #6E6B65",
"u  c #716E67",
"i  c #64625C",
"p  c #706D66",
"a  c #575550",
"s  c #79766F",
"d  c #716E68",
"f  c #75716B",
"g  c #68655F",
"h  c #615F59",
"j  c #6F6D66",
"k  c #6B6862",
"l  c #75726B",
"z  c #65625C",
"x  c #56544F",
"c  c #706D67",
"v  c #64615B",
"b  c #6A6761",
"n  c #696660",
"m  c #615E58",
"M  c #585550",
"N  c #6A6861",
"B  c #54524D",
"V  c #625F59",
"C  c #504E49",
"Z  c #696661",
"A  c #686660",
"S  c #6C6963",
"D  c #55534E",
"F  c #67655F",
"G  c #66635E",
"H  c #514F4A",
"J  c #53524C",
"K  c #54534E",
"L  c #51504B",
"P  c #53514C",
"I  c #4B4945",
"U  c #4D4C47",
"Y  c #4F4D48",
"T  c #4B4A45",
"R  c #4C4A46",
"E  c #595752",
"W  c #4A4844",
"Q  c #4F4D49",
"!  c #53514D",
"~  c #64615C",
"^  c #54534D",
"/  c #716F68",
"(  c #726F68",
")  c #73706A",
"_  c #74716A",
"`  c #625F5A",
"'  c #5D5B55",
"]  c #76736C",
"[  c #55544E",
"{  c #605D58",
"}  c #605E58",
"|  c #595751",
" . c #6C6A64",
".. c #4E4D48",
"X. c #5E5C56",
"o. c #585651",
"O. c #57554F",
"+. c #4C4B46",
"@. c #4F4E49",
"#. c #4E4C47",
"$. c #504F4A",
"%. c #52504C",
"&. c #585650",
"*. c #4D4B47",
"=. c #4D4B46",
"-. c #4E4C48",
";. c #7C7971",
":. c #73716A",
">. c #7A7770",
",. c #78756E",
"<. c #75726C",
"1. c #5B5954",
"2. c #6E6B64",
"3. c #66645D",
"4. c #67655E",
"5. c #6F6C65",
"6. c #65625D",
"7. c #68665F",
"8. c #55534D",
"9. c #5D5A55",
"0. c #5D5B56",
"q. c #6B6963",
"w. c #5E5B56",
"e. c #5A5953",
"r. c #5F5C57",
"t. c #53524D",
"y. c #484742",
"u. c #56544E",
"i. c #575650",
"p. c #484642",
"a. c #7B7771",
"s. c #727069",
"d. c #54524C",
"f. c #63605A",
"g. c #4B4944",
"h. c #6D6A63",
"j. c #5A5853",
"k. c #494843",
"l. c #5C5954",
"z. c #464440",
"x. c #5B5953",
"c. c #5F5D58",
"v. c #474641",
"b. c #464540",
"n. c #494742",
"m. c #4A4843",
"M. c #51504A",
"N. c #5E5C57",
"B. c #64625B",
"V. c #4A4944",
"C. c #4C4A45",
"Z. c white",
/* pixels */
"  . X o O + X @ # $ % O & # * = - ; : > , , = < ; . 1 2 3 4 5 6 ",
"@ 7 8 9 7 0 0 q w e > w & r t y u - i p i a s d s q X + f 3 + a ",
"g * h O p - j k l z x c $ # k 4 v b 2 n m M r = b N 3 k y b g B ",
"h 3 N + b d c N n V C b Z A b S + O 4 N D   l # A : b $ F G g H ",
"% J K H % % C L % P I P P % B % U U Y D T R E B x H P W Q ! H W ",
"& 3 4 ~ z ^ q & X / p g 3 ( ) D   3 d * _ _ ) S k < Y S F # * * ",
"y n i S ` ' ] * @ 3 S y ; + * [ A _ d d @ 3 j = k . B 3 F * A A ",
"l F { * } | u & p b G  .# G G B . S A i N : k N F F ..y n k . A ",
"O ` X.: o.O.k z # { i 4 # A A B A n : g O : F { $ # +.b : k n 4 ",
"@.#.[ x $.Y L @.Q ..W % ^ D %.@.&.a % P +.*.D L Y P =.D B #.Y -.",
"O ;.:.u >._ F X n 4 % X ,.<.u ,.>.S k p 2 1.w j + y _ + . * 2.D ",
"3.3 k k k N i z 4.} % p G . k @ k # : 4 E O.5.b 6.4 k O i 7.< % ",
"A k . F + 4.+ b S i L l S @ 3 S # z F # o.x S 4 4 b O g n 3 O 8.",
": & | X.9.  } 0.  } Y q.} 1 ' 0.{ 0.> } [ H } w.} h > | e.> r.+.",
"6 6 t.t.$.y.P 6 E D x a U U % I T D x u.% D a i.H @.p.P H x x | ",
"a.,.; q F B >.>._ 7.l y d 7.t D 1 l s.c ) N l w t S d.l p ] X _ ",
"g o r.. x x ,.5 * k . # i i g B 1 # 2 h 2 X.i O v f.g.S < O O < ",
"# t X h.1.% ) 4 g o 4.O A q.1 B 5 * # f.k < 4 = 4 2 C b 5.S < * ",
"0.E 0.a U =.2 1.u.H a a ' a 1.=.o.X.j.P a o.P 6 B x k.l.o.D O.1.",
"u.{ 1 2 v h X.$ j.a z.D 1.  a 2 x.o.D x.j.I ' ' E x.X.} a j.h H ",
"N <.c ( ,._ ;.- . A Q ] - b h.l * S u - } 6 ,._ y u X - p y p ' ",
"i @ i # # F 4 : ~ 2 B - ` 1 5 n F ` 1 1 D 8.n m o < $ i N z ' R ",
"3.2.+ F & k c.g n i D _ 4 2.n + = S g A 1 a y N c = g O ` } b D ",
"P x o.x D E Y % | , v.h D L u.x % @.o.D b.T 2 D j.E % % $., x n.",
"o < ' } x m.: v V < # h X.4.4.M.% : F h i f.N.4 } | U 1.m z 2 ' ",
"- @ * c 2 &.] y c X X O j * 4 8.7.- p S 7.5.k y v ` 8.c n S h.k ",
"i } A z 0.x _ g h 4 A 4 A $ } M.f.o : # # # < 4 0.h Y v f.X.< F ",
"O 3 V h 1.B l g @ i < 5 c.2 F P > g k g i b $ } g g % o ` B.i 1 ",
"U u.$.C V.n.a % H C.% @.8.$.[ ..@.% % x -.@.C -.t.C n.a C B $.% ",
"2 5._ 7.k @ # + g 2 Y 2.* b 7.* A n h @ ' P p _ u F n :  .X g % ",
"g h.b . 6.* F 1 = i #.N g = 4 O b v 1 S w.x.d N + * F A A y o B ",
"O b $ @ k 7.< # : } =.< : h 4 . 4 1 i : X.6 t < : 4 . 3 g S * P "
};
