/* XPM */
static char *_d83e3b71ff74056e57419436e48e7cdtk5c76pW0pk9um2t[] = {
/* columns rows colors chars-per-pixel */
"32 32 2 1 ",
"  c black",
". c red",
/* pixels */
"                                ",
" ............         ...       ",
" ............   ............... ",
" ............   ............... ",
" ...      ...   ............... ",
" ...      ...                   ",
" ...      ...      ...   ...    ",
" ............      ...   ...    ",
" ............      ...   ...    ",
" ............  .................",
" ..            .................",
" ..            .................",
" .. .........         ...       ",
" .. .........         ...       ",
" .. .........    .............  ",
" .. ...   ...    .............  ",
" .. ...   ...    .............  ",
"    .........         ...       ",
"    .........         ...       ",
"    .........         ...       ",
"              ....              ",
"              ....              ",
"    ........................    ",
"    ........................    ",
"    ........................    ",
"              ....              ",
"              ....              ",
"              ....              ",
"  ............................  ",
"  ............................  ",
"  ............................  ",
"                                "
};
