/* XPM */
static char *f7099b62aa2d4b30d5dec816c918394bVBwM4GTuYxyLNSAx[] = {
/* columns rows colors chars-per-pixel */
"32 32 13 1 ",
"  c gray7",
". c gray12",
"X c #373737",
"o c #5B5B5B",
"O c #66666A",
"+ c #747477",
"@ c red",
"# c #0018FF",
"$ c #86878E",
"% c #9C9CA4",
"& c #B7B7B7",
"* c #CBCBCB",
"= c white",
/* pixels */
"================================",
"================================",
"================================",
"================================",
"================================",
"================#===============",
"============#===#===#===========",
"=============#=====#============",
"================================",
"===========#===###===#==========",
"============#=#####=#===========",
"===####=======#####=============",
"**#######***********************",
"==###=####======================",
"&&&&#=#&&&&&&&&&&&&&&&&&&&&&&&&&",
"=====#==========================",
"%%%%%#%%%%%%%%%%%%%%%%%%%%%%%%%%",
"=====#==========================",
"$$$$$$$$$$$$$$$##$$$$$$$$###$$$$",
"========#=============#######===",
"+++++++++++++++++++++####=#+++++",
"=======================#==#=====",
"OOOOOOOO##OOOOOOOOOOOOOO##OOOOOO",
"=======#####=============#======",
"ooooooo#######oooooo#oooo#oooooo",
"=========#=###=========@===@====",
"XXXXXXXXX###XXXXXXXXXXX@X@X@XXXX",
"==========#============@=@=@====",
"..........#............@@.@@....",
"=======================@===@====",
"                                ",
"================================"
};
