/* XPM */
static char *_a3b8b91ce9249f6c2bc1e7a8fb720c3EvT4fORTV6FoGPz5[] = {
/* columns rows colors chars-per-pixel */
"32 32 249 2 ",
"   c #827C66",
".  c #908A72",
"X  c #928B73",
"o  c #938C74",
"O  c #948D75",
"+  c #948C75",
"@  c #948D76",
"#  c #928B74",
"$  c #8E8770",
"%  c #938B73",
"&  c #8A836C",
"*  c #8B846D",
"=  c #908972",
"-  c #89836C",
";  c #857F68",
":  c #8F8971",
">  c #918A73",
",  c #918A72",
"<  c #908971",
"1  c #88816A",
"2  c #8B856D",
"3  c #8B856E",
"4  c #8E8870",
"5  c #C4B69B",
"6  c #C7B89B",
"7  c #C7BA9F",
"8  c #C8BBA0",
"9  c #BFB195",
"0  c #C7B99F",
"q  c #CABCA1",
"w  c #C3B69C",
"e  c #968F77",
"r  c #C7B99D",
"t  c #C7B99E",
"y  c #C8BA9F",
"u  c #C2B497",
"i  c #BDAE92",
"p  c #C3B69B",
"a  c #C2B599",
"s  c #C8BA9E",
"d  c #CABBA0",
"f  c #C5B699",
"g  c #C3B497",
"h  c #BEB093",
"j  c #C5B89D",
"k  c #C6B99E",
"l  c #C1B296",
"z  c #BCAE92",
"x  c #C0B195",
"c  c #C0B196",
"v  c #BEB095",
"b  c #BFB094",
"n  c #B9AC91",
"m  c #C8B99E",
"M  c #B6AA8E",
"N  c #BDB094",
"B  c #B7AA8F",
"V  c #BDAF93",
"C  c #B9AB90",
"Z  c #928A73",
"A  c #C9BBA0",
"S  c #C2B498",
"D  c #BEB094",
"F  c #B6AA8F",
"G  c #B7AB90",
"H  c #ADA186",
"J  c #8D866F",
"K  c #C3B498",
"L  c #BBAE92",
"P  c #BCAE93",
"I  c #B4A88D",
"U  c #BBAD92",
"Y  c #B1A489",
"T  c #B0A489",
"R  c #8C866E",
"E  c #C5B69A",
"W  c #BEAF93",
"Q  c #BBAD91",
"!  c #B5A98E",
"~  c #AEA388",
"^  c #8F8871",
"/  c #B3A78C",
"(  c #B1A58A",
")  c #88816B",
"_  c #B8AA8F",
"`  c #B7A98E",
"'  c #AFA489",
"]  c #B1A58B",
"[  c #B1A68B",
"{  c #B7AA8E",
"}  c #B2A58A",
"|  c #89826B",
" . c #ADA288",
".. c #B0A58A",
"X. c #A99E83",
"o. c #ABA085",
"O. c #B6A98D",
"+. c #A59A80",
"@. c #B9AB8F",
"#. c #ACA085",
"$. c #A89C82",
"%. c #AA9F84",
"&. c #B6A98E",
"*. c #ACA086",
"=. c #AEA287",
"-. c #8E876F",
";. c #8E866F",
":. c #968E76",
">. c #958E76",
",. c #8F8870",
"<. c #8C856E",
"1. c #928A72",
"2. c #8A846D",
"3. c #918972",
"4. c #87816A",
"5. c #958D75",
"6. c #C7BA9E",
"7. c #C4B79B",
"8. c #C0B295",
"9. c #CABDA2",
"0. c #C4B79C",
"q. c #C2B396",
"w. c #C4B598",
"e. c #C9BCA1",
"r. c #C2B397",
"t. c #B4A98D",
"y. c #AFA387",
"u. c #B5A98D",
"i. c #BAAC90",
"p. c #C5B79C",
"a. c #B8AC91",
"s. c #AFA388",
"d. c #B0A48A",
"f. c #C9B99E",
"g. c #B7AB8F",
"h. c #BFB095",
"j. c #ADA287",
"k. c #BDAE93",
"l. c #BAAD91",
"z. c #B5A88D",
"x. c #A79C82",
"c. c #8D866E",
"v. c #AFA48A",
"b. c #B4A78C",
"n. c #AAA085",
"m. c #A99D83",
"M. c #B2A68B",
"N. c #A4997F",
"B. c #89836B",
"V. c #B8AB90",
"C. c #A89D83",
"Z. c #A69B81",
"A. c #AEA389",
"S. c #AA9E83",
"D. c #8F8770",
"F. c #8A846C",
"G. c #978F77",
"H. c #978F76",
"J. c #8C856D",
"K. c #C8BB9F",
"L. c #C1B396",
"P. c #BFB093",
"I. c #BDAF92",
"U. c #C6B89C",
"Y. c #BBAC90",
"T. c #B6A88D",
"R. c #948C74",
"E. c #C9BCA0",
"W. c #C7BAA0",
"Q. c #C0B194",
"!. c #B4A68B",
"~. c #88826B",
"^. c #C1B397",
"/. c #B2A68A",
"(. c #948D74",
"). c #BDAF94",
"_. c #A89D82",
"`. c #938B74",
"'. c #BAAC91",
"]. c #AFA389",
"[. c #C7B79B",
"{. c #ADA187",
"}. c #B3A88D",
"|. c #C6B69B",
" X c #B9AC90",
".X c #A2987E",
"XX c #B7A98D",
"oX c #AA9E84",
"OX c #AB9F84",
"+X c #ABA086",
"@X c #ACA187",
"#X c #8D876F",
"$X c #979077",
"%X c #878169",
"&X c #938C73",
"*X c #958D74",
"=X c #C6B699",
"-X c #CABCA0",
";X c #CCBDA2",
":X c #C3B69A",
">X c #BDB093",
",X c #C3B59A",
"<X c #BFB194",
"1X c #C9B89D",
"2X c #C2B297",
"3X c #BEAF94",
"4X c #C5B79B",
"5X c #C7B69B",
"6X c #B2A78C",
"7X c #A79C81",
"8X c #A69B80",
"9X c #A69A80",
"0X c #B3A68B",
"qX c #ABA186",
"wX c #B8AB8F",
"eX c #958E75",
"rX c #88826A",
"tX c #C5B99E",
"yX c #C9BA9E",
"uX c #C6B89D",
"iX c #C9BB9F",
"pX c #C8BAA0",
"aX c #C9BCA2",
"sX c #B9AD91",
"dX c #B4A88C",
"fX c #AEA186",
"gX c #B5A88C",
"hX c #AEA489",
"jX c #908870",
"kX c #968E75",
"lX c #C2B59B",
"zX c #C4B69A",
"xX c #CBBB9F",
"cX c #C1B295",
"vX c #B4A78B",
"bX c #B5A78C",
"nX c #A99D82",
"mX c #B5AA8F",
"MX c #AB9F85",
"NX c #AEA288",
"BX c #918971",
"VX c #8D856E",
"CX c #A3987E",
"ZX c #ACA287",
"AX c #A1967C",
"SX c #A1977D",
"DX c #A79B81",
"FX c #ADA388",
"GX c white",
/* pixels */
"  . X o O O + @ o # $ # o % o # & * = - ; : > , , < 1 - 2 * < 3 ",
"4 5 6 7 8 7 9 0 q w e 5 r 9 t y u i y p O a s d f g h j k l z 1 ",
"$ x x 9 c v b 9 9 n , m x M 9 N B V 9 C Z A S x x D V F G D H J ",
"- K B L P I P U Y T R E W Q U I U P ! ~ ^ y l P z I I / L V ( J ",
") _ ` ' ' ] [ ~ { } |  ...X.o.` ' ' O.+.) _ @.#.$.%.&...&.*.=.R ",
", -.;.X -.= :.>.:.:.# o ,.O o | <.<.;.1.2.,.3.o <.4.o >.5.J ;.& ",
"t b i 6.9 :.7.s 8.y 9.y V x ` > 0.A q.w.y l k e.Q o 7.y r.7 k 8.",
"t.y.u.9 i.:.p.a.M v 9 N ! s.d.O f.K g.V h.h.c v o.O s 9 ! N D B ",
"j./ U k...,.P F l.V z ! L V z.>.f.x U ! ! V z I x.c.V M I ! z U ",
"' v.b.d.n.- j.} m.~ ....` M.N.B.M.n ' ' V.` X.' C.- Z.j.&...A.S.",
"- 5.:.c.$ , -.D.< F.4.O G.:.:.O G.H.c.<., >.,.O 5.^ J.< D.5.% * ",
"= 0.K.L.t y P.I.U.` X p s u 8 9.A l Y.T.R.p E.W.8 w.r.t b Q.!.~.",
"o ^.a.B D D V M /.M.(.u a.I G D ).! t._.$ r.9 G ).b 9 D ! ! S.-.",
"`.g F '.z u.F P z ].^ [.i.{.U U }.I U ~ c.|.V. X! L z I I z ..: ",
"2.` M.o.v...T._ ...X2.XXoX~ B OX+Xz.[ +X& O.] ' O.%.$.~ { C @X#X",
"(.$XG.H.R.B.-.< ^ -.< O D.X c.%Xc.< X O , -.c.,.&X- c.,.R.*X< R ",
"=Xy 7 u !.o 5 -X;Xw.L.k g q.!.1.:Xr V 0.t h V t >X% ,Xs l <X0 8 ",
"D 9 D F _.`.1X2X3XM F h.9 V _., 4XD ! F U W D D ..$ U.l z g.N v ",
"U I I U ~ J 5XV / i.U z U u.%.<.@.M U Q ! U z ! j.J V i ! L I 6X",
"' _. .[ +X2 s.X.7Xb.H 8X$.{ @X- 9X/.' ..{ ' ' 0XN.B.qX..{ wXA._.",
"- J $ R.eX# O ;.D.1.rXJ ,.5.5., c.-.% , & % R.,.X , `.D.R.*X-.~.",
"> tX7 L.y 9.7 D yXV X 5 s 8.t y b W uXz., 0.iX<XpXaXt b <XQ.0X#X",
"R.f 9 g.9 D V.).9 6X5.r sXM N V ! F h.[ $ 4Xh.M ).9 9 V dXfXX.,.",
", Q.g.L z ! L P B I X ^.B Q z./ }.U V ' &  Xg.l.! U U ! l.L ' 1 ",
"~.~ B ..' ....( wX} ~.j.wX{ #.d.' ' X.N.4.@XgX' hXj.m.~ A...M.<.",
", -.jX+ J - R.5.,.-.J ^ 5.kX% F.,.O R.% , $ -.;.X ,.X &Xc.$ 5.X ",
"t q.<X7 lXO zXxXx Q.8 7 cXQ.vX% a d d 8.k 0 uXl bXo :XU.x k k f ",
"D V B 9  XZ [.x M F h.v ! I nXX ^.b mXF D 9 D F MXX r D M F g.V ",
"}.! z V ' <.i.B l.z V z I z bX#XC &.I P V z I I ~ ,.W F n ! n / ",
"m.` C NX+.J {.z.( C  X[ wXC 7X2.~ C wXC ] %.' wX} < T ' [ wXT _.",
"| J &X, < - * c.c.BX* J.X X & <.X % VX-.1 & , X ;.F.< 1., % c.rX",
"J CX8X+.7X@Xm.ZX_.qX4 AX8X_.+.+.8X .C.CX2.SX+.8XDXFX..z.' o.+X~."
};
